<svg xmlns="http://www.w3.org/2000/svg" width="34" height="34" viewBox="0 0 34 34">
  <g id="Layer_2" data-name="Layer 2" transform="translate(0 -0.369)">
    <g id="eye">
      <rect id="Rectangle_178" data-name="Rectangle 178" width="34" height="34" transform="translate(0 0.369)" fill="#fff" opacity="0"/>
      <path id="Tracé_489" data-name="Tracé 489" d="M30.456,14.31C29.54,12.72,24.5,4.744,15.935,5c-7.919.2-12.5,7.16-13.747,9.308a1.432,1.432,0,0,0,0,1.432c.9,1.561,5.728,9.308,14.163,9.308h.358c7.919-.2,12.516-7.16,13.747-9.308A1.432,1.432,0,0,0,30.456,14.31ZM16.637,22.186c-6.172.143-10.2-5.141-11.456-7.16,1.432-2.306,5.17-7.017,10.9-7.16,6.143-.158,10.182,5.141,11.456,7.16C26.06,17.332,22.365,22.043,16.637,22.186Z" transform="translate(0.862 2.158)" fill="#fff"/>
      <path id="Tracé_490" data-name="Tracé 490" d="M13.512,8.5a5.012,5.012,0,1,0,5.012,5.012A5.012,5.012,0,0,0,13.512,8.5Zm0,7.16a2.148,2.148,0,1,1,2.148-2.148A2.148,2.148,0,0,1,13.512,15.66Z" transform="translate(3.672 3.672)" fill="#fff"/>
    </g>
  </g>
</svg>
