<?xml version="1.0" encoding="utf-8"?>
<!-- Generator: Adobe Illustrator 25.2.1, SVG Export Plug-In . SVG Version: 6.00 Build 0)  -->
<svg version="1.1" id="Calque_1" xmlns="http://www.w3.org/2000/svg" xmlns:xlink="http://www.w3.org/1999/xlink" x="0px" y="0px"
	 viewBox="0 0 30 33.1" style="enable-background:new 0 0 30 33.1;" xml:space="preserve">
<style type="text/css">
	.st0{opacity:0.997;}
	.st1{fill:#0B1924;}
</style>
<g id="Groupe_35" class="st0">
	<g id="Groupe_1" transform="translate(0 0)">
		<g id="Groupe_34">
			<path id="Tracé_7" class="st1" d="M8.5,31.8c0.7,0.4,1.5,0.8,2.3,1.1c0,0,0,0,0,0.1c0,0,0,0-0.1,0H4.3c-2.2,0-4.3-1.5-4.3-3.4
				v-7.8c0,0,0-0.1,0.1-0.1c0,0,0,0,0.1,0c0.5,1.4,1.2,2.7,2.1,4C3,27.1,3.9,28.2,5,29.2C6,30.2,7.2,31.1,8.5,31.8z"/>
			<path id="Tracé_8" class="st1" d="M0,3.4C0,1.5,2.1,0,4.3,0H11C11,0,11,0,11,0.1c0,0,0,0,0,0.1C6,2,2,6,0.1,11l0,0
				c0,0,0,0-0.1,0c0,0,0,0,0-0.1L0,3.4z"/>
			<path id="Tracé_9" class="st1" d="M20.8,14c1.8,0.7,2.6,2.6,1.5,4c-0.9,1-2.3,1.6-3.6,1.5H8.7c-0.1,0-0.2-0.1-0.3-0.2
				C8.2,18.7,8,18,7.9,17.3c-0.2-1.1,0-2.3,0.4-3.3l0-0.1l0-0.1c0,0,0-0.1,0-0.1c0-0.1,0.2-0.2,0.3-0.2h10
				C19.4,13.6,20.1,13.7,20.8,14z"/>
			<path id="Tracé_10" class="st1" d="M29,27.5c0,0,0.1,0,0.1,0c0,0,0,0,0,0c1,1,1.2,2.6,0.4,3.8c-0.9,1.2-2.3,1.9-3.8,1.8h-4.5
				c0,0-0.1,0-0.1-0.1c0,0,0-0.1,0.1-0.1c0.8-0.3,1.5-0.6,2.3-1c1.4-0.7,2.7-1.6,3.9-2.7C27.9,28.7,28.5,28.1,29,27.5z"/>
			<path id="Tracé_11" class="st1" d="M21.2,0.2L21.2,0.2c0,0-0.1-0.1,0-0.1c0,0,0-0.1,0.1-0.1h4.4c1.5-0.1,2.9,0.5,3.8,1.8
				c0.8,1.2,0.7,2.8-0.4,3.8c0,0-0.1,0-0.1,0c0,0,0,0,0,0c-0.4-0.5-0.9-1-1.4-1.4C25.7,2.4,23.6,1.1,21.2,0.2L21.2,0.2z"/>
		</g>
	</g>
	<path id="Tracé_12" class="st1" d="M29.6,22.6c-0.3-0.6-0.8-1.1-1.4-1.4c-0.6-0.4-1.3-0.6-2.1-0.6h0c-1.4,0-2.6,0.8-3.3,1.9
		c-0.5,0.6-1,1.2-1.6,1.7c-1,0.7-2.1,1.2-3.2,1.5c-5.2,1.3-8.8-2.1-10-6.1c-0.6-2-0.7-4.1-0.1-6.1C8,13.2,8.1,13,8.2,12.8l0,0
		c0.3-1,0.8-1.9,1.5-2.7c0.6-0.8,1.4-1.5,2.3-2c0.9-0.5,1.8-0.9,2.8-1C15.9,6.9,16.9,7,18,7.3l0,0c1,0.3,2,0.7,2.9,1.3
		c0.8,0.5,1.5,1.1,2,1.9l0,0c0.5,0.9,1.4,1.6,2.4,1.8c1.2,0.2,2.4-0.1,3.3-0.8c0.7-0.5,1.2-1.3,1.3-2.2c0-0.9-0.2-1.7-0.7-2.4
		c-0.4-0.7-1-1.4-1.6-2c-0.1-0.1-0.3-0.3-0.4-0.4c-1-1-2.2-1.8-3.4-2.5c-1.2-0.6-2.4-1.1-3.7-1.5C15-0.7,9.7,0.5,5.7,3.8
		c-1,0.8-1.9,1.8-2.6,2.8c-2.4,3.4-3.5,7.5-3,11.7c0.3,2.8,1.3,5.4,2.9,7.7c0.7,1,1.5,1.9,2.3,2.8c0.9,0.8,1.9,1.6,3,2.2
		c2.3,1.3,4.8,1.9,7.4,1.9h0.1c4.4,0,8.6-1.8,11.8-4.9c0.7-0.7,1.3-1.4,1.8-2.2l0,0C30.1,24.9,30.1,23.6,29.6,22.6z"/>
</g>
</svg>
