<svg xmlns="http://www.w3.org/2000/svg" viewBox="0 0 690.23 205.62"><defs><style>.cls-1{fill:#a973f5;}</style></defs><g id="Calque_2" data-name="Calque 2"><g id="Logotypes"><path class="cls-1" d="M0,90.93c152.23-51.86,266.79,74.76,392.09,85.24,46.26,4.23,86.75-5.74,130.89-18.6-78.05,58-156.64,58.39-237.59,28.21C188,148.51,134.06,94.28,0,90.93Z"/><path class="cls-1" d="M323,131.75c126.32-3.3,246.33,2.14,333.77-90.81C676.58,20.15,686.26,2.7,690.23,0c-1.37,1.88-2.4,12-7.34,26.18C636.91,160.62,457.08,189.86,323,131.75Z"/><path class="cls-1" d="M69.13,52.56C143.42,23.77,215,24.06,281.93,38.05,383.25,60.5,406.26,89,542.54,87.21c-91.81,40.34-172.84,12.48-240.73-5.6C193.48,51.22,144,54.89,69.13,52.56Z"/></g></g></svg>