<svg xmlns="http://www.w3.org/2000/svg" width="22.999" height="23" viewBox="0 0 22.999 23">
  <path id="instagram-glyph-1" d="M7.667,11.5A3.833,3.833,0,1,1,11.5,15.334,3.833,3.833,0,0,1,7.667,11.5m-2.072,0A5.905,5.905,0,1,0,11.5,5.595,5.9,5.9,0,0,0,5.595,11.5M16.259,5.361a1.38,1.38,0,1,0,1.38-1.379,1.381,1.381,0,0,0-1.38,1.379m-9.405,15.5a6.352,6.352,0,0,1-2.136-.4A3.577,3.577,0,0,1,3.4,19.6a3.554,3.554,0,0,1-.86-1.322,6.352,6.352,0,0,1-.4-2.136c-.056-1.212-.067-1.576-.067-4.647s.012-3.434.067-4.647a6.382,6.382,0,0,1,.4-2.136A3.577,3.577,0,0,1,3.4,3.394a3.551,3.551,0,0,1,1.323-.86,6.352,6.352,0,0,1,2.136-.4c1.212-.056,1.576-.067,4.646-.067s3.434.012,4.647.067a6.382,6.382,0,0,1,2.136.4,3.565,3.565,0,0,1,1.323.86,3.569,3.569,0,0,1,.86,1.323,6.352,6.352,0,0,1,.4,2.136c.056,1.213.067,1.576.067,4.647s-.011,3.434-.067,4.647a6.376,6.376,0,0,1-.4,2.136,3.807,3.807,0,0,1-2.183,2.182,6.352,6.352,0,0,1-2.136.4c-1.212.056-1.576.067-4.647.067s-3.434-.011-4.646-.067M6.759.07A8.435,8.435,0,0,0,3.967.6,5.643,5.643,0,0,0,1.93,1.93,5.627,5.627,0,0,0,.6,3.967,8.435,8.435,0,0,0,.07,6.759C.013,7.985,0,8.377,0,11.5s.013,3.515.07,4.741A8.435,8.435,0,0,0,.6,19.033,5.623,5.623,0,0,0,1.93,21.07,5.64,5.64,0,0,0,3.967,22.4a8.44,8.44,0,0,0,2.791.534c1.227.056,1.618.07,4.741.07s3.515-.013,4.741-.07a8.435,8.435,0,0,0,2.791-.534A5.88,5.88,0,0,0,22.4,19.033a8.412,8.412,0,0,0,.534-2.791c.056-1.227.069-1.618.069-4.741s-.013-3.515-.069-4.741A8.435,8.435,0,0,0,22.4,3.967,5.655,5.655,0,0,0,21.07,1.93,5.64,5.64,0,0,0,19.034.6,8.422,8.422,0,0,0,16.242.07C15.016.014,14.624,0,11.5,0S7.986.013,6.759.07" fill="#fff"/>
</svg>
