<svg xmlns="http://www.w3.org/2000/svg" width="19.999" height="20" viewBox="0 0 19.999 20">
  <path id="instagram-glyph-1" d="M6.667,10A3.333,3.333,0,1,1,10,13.334,3.333,3.333,0,0,1,6.667,10m-1.8,0A5.135,5.135,0,1,0,10,4.865,5.135,5.135,0,0,0,4.865,10m9.273-5.338a1.2,1.2,0,1,0,1.2-1.2,1.2,1.2,0,0,0-1.2,1.2M5.96,18.14A5.524,5.524,0,0,1,4.1,17.8a3.11,3.11,0,0,1-1.15-.748A3.091,3.091,0,0,1,2.2,15.9a5.524,5.524,0,0,1-.344-1.857C1.812,12.987,1.8,12.67,1.8,10s.011-2.986.058-4.041A5.55,5.55,0,0,1,2.2,4.1a3.11,3.11,0,0,1,.748-1.15A3.087,3.087,0,0,1,4.1,2.2,5.524,5.524,0,0,1,5.96,1.859C7.014,1.811,7.33,1.8,10,1.8s2.986.011,4.041.058A5.55,5.55,0,0,1,15.9,2.2a3.1,3.1,0,0,1,1.15.748A3.1,3.1,0,0,1,17.8,4.1a5.524,5.524,0,0,1,.344,1.857C18.189,7.014,18.2,7.33,18.2,10s-.01,2.986-.058,4.041A5.545,5.545,0,0,1,17.8,15.9a3.311,3.311,0,0,1-1.9,1.9,5.524,5.524,0,0,1-1.857.344c-1.054.048-1.371.058-4.041.058s-2.986-.01-4.04-.058M5.877.061A7.335,7.335,0,0,0,3.45.525,4.907,4.907,0,0,0,1.679,1.679,4.893,4.893,0,0,0,.525,3.45,7.335,7.335,0,0,0,.061,5.877C.011,6.943,0,7.284,0,10s.011,3.057.061,4.123A7.335,7.335,0,0,0,.525,16.55a4.89,4.89,0,0,0,1.153,1.771A4.9,4.9,0,0,0,3.45,19.475a7.339,7.339,0,0,0,2.427.464C6.944,19.988,7.284,20,10,20s3.057-.011,4.123-.061a7.335,7.335,0,0,0,2.427-.464,5.113,5.113,0,0,0,2.925-2.925,7.314,7.314,0,0,0,.464-2.427c.048-1.067.06-1.407.06-4.123s-.011-3.057-.06-4.123a7.335,7.335,0,0,0-.464-2.427,4.918,4.918,0,0,0-1.153-1.771A4.9,4.9,0,0,0,16.551.525,7.323,7.323,0,0,0,14.124.061C13.057.012,12.716,0,10,0S6.944.011,5.877.061" fill="#a973f5"/>
</svg>
