<svg xmlns="http://www.w3.org/2000/svg" width="36" height="36" viewBox="0 0 36 36">
  <g id="trending-up" transform="translate(0.206 0.206)">
    <rect id="Rectangle_132" data-name="Rectangle 132" width="36" height="36" transform="translate(-0.206 35.794) rotate(-90)" fill="#43d06a" opacity="0"/>
    <path id="Tracé_96" data-name="Tracé 96" d="M29.847,7.491a1.163,1.163,0,0,0,0-.313.955.955,0,0,0-.075-.254,1.64,1.64,0,0,0-.134-.209,1.118,1.118,0,0,0-.209-.254l-.179-.1a1.029,1.029,0,0,0-.283-.149h-.3A1.044,1.044,0,0,0,28.355,6H20.9a1.491,1.491,0,1,0,0,2.983h4.221l-5.966,7.025L12.71,12.175A1.491,1.491,0,0,0,10.8,12.5L3.344,21.451a1.493,1.493,0,0,0,2.3,1.909L12.278,15.4l6.368,3.818A1.491,1.491,0,0,0,20.54,18.9l6.324-7.383v3.43a1.491,1.491,0,0,0,2.983,0Z" transform="translate(1.473 2.949)" fill="#43d06a"/>
  </g>
</svg>
