<svg xmlns="http://www.w3.org/2000/svg" width="28.45" height="23" viewBox="0 0 28.45 23">
  <path id="twitter" d="M28.314,2.731a12.278,12.278,0,0,1-2.879,2.976l-.034.024q.017.251.017.754a16.484,16.484,0,0,1-.714,4.779l.031-.117a16.827,16.827,0,0,1-2.114,4.527l.038-.062a17.718,17.718,0,0,1-3.292,3.763l-.023.019a14.693,14.693,0,0,1-4.533,2.591l-.1.032A16.629,16.629,0,0,1,9.028,23H8.785A16.036,16.036,0,0,1-.064,20.351l.06.037a12.033,12.033,0,0,0,1.338.072h.184a11.311,11.311,0,0,0,7.107-2.5l-.022.017A5.82,5.82,0,0,1,3.189,14l-.011-.041a7.118,7.118,0,0,0,1.093.09h0a6,6,0,0,0,1.569-.207l-.042.01a5.73,5.73,0,0,1-3.325-1.993l-.008-.011A5.573,5.573,0,0,1,1.146,8.23c0-.027,0-.054,0-.08V8.082a5.675,5.675,0,0,0,2.613.736h.011A5.84,5.84,0,0,1,1.9,6.778l-.015-.03a5.824,5.824,0,0,1,.1-5.724l-.014.027a16.567,16.567,0,0,0,5.2,4.242l.091.043A15.919,15.919,0,0,0,13.9,7.123h.036A6.275,6.275,0,0,1,13.8,5.8h0a5.809,5.809,0,0,1,10.04-3.974l0,0A11.362,11.362,0,0,0,27.568.4l-.051.029a5.666,5.666,0,0,1-2.525,3.184l-.027.014a11.542,11.542,0,0,0,3.42-.927l-.074.03Z" transform="translate(0.064 0.004)" fill="#fff"/>
</svg>
