<svg xmlns="http://www.w3.org/2000/svg" width="24.739" height="20" viewBox="0 0 24.739 20">
  <path id="twitter" d="M24.612,2.374a10.676,10.676,0,0,1-2.5,2.588l-.03.021q.015.218.015.656a14.334,14.334,0,0,1-.621,4.155l.027-.1a14.633,14.633,0,0,1-1.838,3.936l.033-.054a15.407,15.407,0,0,1-2.862,3.272l-.02.017a12.776,12.776,0,0,1-3.941,2.253l-.09.028A14.46,14.46,0,0,1,7.842,20H7.63A13.945,13.945,0,0,1-.064,17.7l.052.032a10.463,10.463,0,0,0,1.163.062h.16a9.835,9.835,0,0,0,6.18-2.171l-.019.015a5.061,5.061,0,0,1-4.708-3.464l-.01-.036a6.189,6.189,0,0,0,.951.078h0a5.216,5.216,0,0,0,1.364-.18l-.037.008a4.982,4.982,0,0,1-2.891-1.733L2.137,10.3A4.846,4.846,0,0,1,.988,7.156c0-.023,0-.047,0-.07V7.027a4.935,4.935,0,0,0,2.272.64h.009A5.078,5.078,0,0,1,1.643,5.893L1.63,5.867A5.065,5.065,0,0,1,1.721.89L1.708.913A14.406,14.406,0,0,0,6.229,4.6l.079.037A13.842,13.842,0,0,0,12.08,6.193h.032a5.456,5.456,0,0,1-.124-1.152h0a5.051,5.051,0,0,1,8.73-3.456l0,0A9.88,9.88,0,0,0,23.964.345L23.92.37a4.927,4.927,0,0,1-2.2,2.769l-.023.012a10.037,10.037,0,0,0,2.974-.806l-.064.026Z" transform="translate(0.064 0.004)" fill="#a973f5"/>
</svg>
