<?xml version="1.0" encoding="utf-8"?>
<!-- Generator: Adobe Illustrator 25.0.1, SVG Export Plug-In . SVG Version: 6.00 Build 0)  -->
<svg version="1.1" id="Calque_1" xmlns="http://www.w3.org/2000/svg" xmlns:xlink="http://www.w3.org/1999/xlink" x="0px" y="0px"
	 viewBox="0 0 512 512" style="enable-background:new 0 0 512 512;" xml:space="preserve">
<style type="text/css">
	.st0{fill:#1E1E1E;}
</style>
<g>
	<path class="st0" d="M393,360c-13.2,0-24,10.8-24,24c0,13.3,10.8,24,24,24s24-10.7,24-24S406.2,360,393,360z M393,392
		c-4.4,0-8-3.6-8-8s3.6-8,8-8s8,3.6,8,8S397.4,392,393,392z"/>
	<path class="st0" d="M105,360c-13.2,0-24,10.8-24,24c0,13.3,10.8,24,24,24s24-10.7,24-24S118.2,360,105,360z M105,392
		c-4.4,0-8-3.6-8-8s3.6-8,8-8s8,3.6,8,8S109.4,392,105,392z"/>
	<path class="st0" d="M144.1,424c8.2-8.1,13.8-18.4,15.9-29.7c0-0.2,0.1-0.5,0.1-0.8c0.1-0.5,0.2-1,0.2-1.5h177.2
		c1.8,12.2,7.5,23.4,16.3,32l0,0c8.7,8.6,19.8,14.4,32.6,15.9h6.5c15.2,0,29.1-6.1,39.2-16H432c4.1-4,7.6-8.6,10.2-13.6
		c0.2-0.3,0.4-0.7,0.5-1c0.3-0.7,0.7-1.4,1-2c0.2-0.4,0.3-0.8,0.5-1.1c0.1-0.3,0.2-0.6,0.4-0.9c0.2-0.4,0.4-0.9,0.5-1.3
		c0.2-0.7,0.5-1.3,0.7-2c1.1-3.2,1.9-6.6,2.4-10H497c4.4,0,8-3.6,8-8v-75.7c0-15.5-11.3-28.9-26.7-31.5L414.8,266l-50.1-85.9
		c-10.3-17.5-29.1-28.2-49.5-28.2H305v-20.3c33.1-9.1,51-20.1,52.2-20.9c3.7-2.3,4.9-7.3,2.5-11c-0.6-1-1.5-1.9-2.5-2.5
		C355.1,95.9,303,64,209,64c-20.5,0-40.3,0.7-58.6,2.1c-21.8,1.6-41.4,4.1-57.8,7.5C57.4,80.7,41,90.4,41,104s16.4,23.3,51.6,30.5
		c1.4,0.3,2.9,0.6,4.4,0.9v16.7H67.7C53.5,152,41,161.4,37,175L9.4,269.6v0.2c-0.1,0.2-0.1,0.5-0.2,0.7v0.3c0,0.2-0.1,0.4-0.1,0.6
		v0.3c0,0.1,0,0.2,0,0.2v112c0,4.4,3.6,8,8,8h32.6c1.8,12.2,7.5,23.4,16.3,32h-0.2c10.1,9.9,23.9,16,39.2,16h6.4
		C124,438.5,135.5,432.4,144.1,424 M357.7,200l37.3,64H281v-64H357.7z M70.8,112H193c4.4,0,8-3.6,8-8s-3.6-8-8-8H70.8
		c6.3-2.4,15.5-5,28.8-7.5c16.4-3.1,36-5.4,57.6-6.8C173.5,80.6,191,80,209,80c62.3,0,105.6,14.9,126.2,24
		c-20.5,9.1-63.8,24-126.2,24c-10.9,0-21.6-0.2-32-0.6c-29.4-1.1-56.2-3.8-77.4-7.9C86.3,117,77.2,114.4,70.8,112z M289,135.6V152
		H113v-14c20.8,3,45,4.9,71.1,5.7c8.1,0.2,16.5,0.4,24.9,0.4C235.9,144.1,262.7,141.3,289,135.6z M52.3,179.5
		c2-6.8,8.3-11.5,15.4-11.5h247.6c12.8,0,24.9,5.9,32.8,16H51L52.3,179.5z M46.3,200H129v64H27.7L46.3,200z M25,336h8v8h-8V336z
		 M105,424c-22.1,0-40-17.9-40-40s17.9-40,40-40s40,17.9,40,40S127.1,424,105,424z M265,376H160.4c-3.8-26.1-25.1-45.4-50.3-47.8
		l0,0c-4.3-0.4-8.7-0.3-13.1,0.4c-24.6,3.5-43.9,22.8-47.4,47.4H25v-16h16c4.4,0,8-3.6,8-8v-24c0-4.4-3.6-8-8-8H25v-40h240V376z
		 M265,264H145v-64h120V264z M393,424c-22.1,0-40-17.9-40-40s17.9-40,40-40s40,17.9,40,40S415.1,424,393,424z M489,376h-40.6
		c-4.4-30.6-32.8-51.8-63.4-47.4c-24.6,3.5-43.9,22.9-47.4,47.5H281v-96h120.3l74.3,12.5c7.7,1.3,13.4,8,13.3,15.8V320H465
		c-8.8,0-16,7.2-16,16v8c0,8.8,7.2,16,16,16h24V376z M489,344h-24v-8h24V344z"/>
	<path class="st0" d="M313,288h-16c-4.4,0-8,3.6-8,8s3.6,8,8,8h16c4.4,0,8-3.6,8-8S317.4,288,313,288z"/>
	<path class="st0" d="M257,296c0,2.9-1.5,5.4-3.8,6.8c-1.2,0.7-2.6,1.2-4.2,1.2h-16c-4.4,0-8-3.6-8-8s3.6-8,8-8h16
		C253.4,288,257,291.6,257,296z"/>
	<path class="st0" d="M81,296c0,4.4-3.6,8-8,8H41c-4.4,0-8-3.6-8-8s3.6-8,8-8h32C77.4,288,81,291.6,81,296z"/>
</g>
</svg>
