<?xml version="1.0" encoding="utf-8"?>
<!-- Generator: Adobe Illustrator 25.0.1, SVG Export Plug-In . SVG Version: 6.00 Build 0)  -->
<svg version="1.1" id="Calque_1" xmlns="http://www.w3.org/2000/svg" xmlns:xlink="http://www.w3.org/1999/xlink" x="0px" y="0px"
	 viewBox="0 0 362 24" style="enable-background:new 0 0 362 24;" xml:space="preserve">
<style type="text/css">
	.st0{enable-background:new    ;}
	.st1{fill:#FFFFFF;}
	.st2{fill:none;stroke:#E2B9A1;stroke-width:2;stroke-linecap:round;stroke-linejoin:round;}
</style>
<g class="st0">
	<path class="st1" d="M171.1,7.2v1h-2.7V17h-1.3V8.3h-2.7v-1H171.1z"/>
	<path class="st1" d="M174,16.6c-0.6-0.3-1-0.8-1.4-1.4c-0.3-0.6-0.5-1.3-0.5-2.1c0-0.8,0.2-1.5,0.5-2.1c0.3-0.6,0.8-1.1,1.4-1.4
		c0.6-0.3,1.2-0.5,2-0.5s1.4,0.2,2,0.5c0.6,0.3,1.1,0.8,1.4,1.4c0.3,0.6,0.5,1.3,0.5,2.1c0,0.8-0.2,1.5-0.5,2.1
		c-0.4,0.6-0.8,1.1-1.4,1.4c-0.6,0.3-1.3,0.5-2,0.5C175.3,17.1,174.6,17,174,16.6z M177.3,15.7c0.4-0.2,0.7-0.5,1-1
		c0.2-0.4,0.4-1,0.4-1.6c0-0.6-0.1-1.1-0.4-1.6s-0.6-0.7-1-1c-0.4-0.2-0.8-0.3-1.3-0.3c-0.5,0-0.9,0.1-1.3,0.3
		c-0.4,0.2-0.7,0.5-0.9,1s-0.4,1-0.4,1.6c0,0.6,0.1,1.2,0.3,1.6c0.2,0.4,0.5,0.7,0.9,1c0.4,0.2,0.8,0.3,1.3,0.3
		C176.5,16,176.9,15.9,177.3,15.7z"/>
	<path class="st1" d="M188.4,9.3V17h-1.3v-1.1c-0.2,0.4-0.6,0.7-1,0.9c-0.4,0.2-0.9,0.3-1.4,0.3c-0.6,0-1.1-0.1-1.6-0.4
		c-0.5-0.2-0.9-0.6-1.1-1.1c-0.3-0.5-0.4-1.1-0.4-1.8V9.3h1.3v4.3c0,0.8,0.2,1.3,0.6,1.7c0.4,0.4,0.9,0.6,1.6,0.6
		c0.7,0,1.2-0.2,1.6-0.6s0.6-1,0.6-1.8V9.3H188.4z"/>
	<path class="st1" d="M192.1,10.4v4.5c0,0.4,0.1,0.6,0.2,0.8c0.2,0.2,0.4,0.2,0.8,0.2h0.9V17H193c-0.7,0-1.2-0.2-1.6-0.5
		c-0.4-0.3-0.5-0.9-0.5-1.6v-4.5h-1v-1h1V7.4h1.3v1.9h2v1H192.1z"/>
	<path class="st1" d="M199.4,7.8c-0.2-0.2-0.3-0.4-0.3-0.6c0-0.2,0.1-0.4,0.3-0.6s0.4-0.3,0.6-0.3c0.2,0,0.4,0.1,0.6,0.3
		c0.2,0.2,0.2,0.4,0.2,0.6c0,0.2-0.1,0.4-0.2,0.6c-0.2,0.2-0.4,0.3-0.6,0.3C199.8,8.1,199.6,8,199.4,7.8z M200.7,9.3V17h-1.3V9.3
		H200.7z"/>
	<path class="st1" d="M208.9,10c0.6,0.6,0.9,1.4,0.9,2.4V17h-1.3v-4.3c0-0.8-0.2-1.4-0.6-1.8c-0.4-0.4-0.9-0.6-1.6-0.6
		c-0.7,0-1.2,0.2-1.6,0.6s-0.6,1-0.6,1.8V17h-1.3V9.3h1.3v1.1c0.3-0.4,0.6-0.7,1-0.9s0.9-0.3,1.4-0.3C207.5,9.2,208.3,9.5,208.9,10z
		"/>
	<path class="st1" d="M211.8,11.1c0.3-0.6,0.8-1.1,1.3-1.4c0.6-0.3,1.2-0.5,1.9-0.5c0.9,0,1.7,0.2,2.3,0.7c0.6,0.5,1,1.1,1.2,1.9
		h-1.4c-0.1-0.5-0.4-0.8-0.8-1.1c-0.4-0.3-0.8-0.4-1.4-0.4c-0.7,0-1.3,0.2-1.8,0.7s-0.7,1.2-0.7,2.1c0,0.9,0.2,1.6,0.7,2.1
		s1,0.8,1.8,0.8c0.6,0,1-0.1,1.4-0.4c0.4-0.3,0.6-0.6,0.8-1.1h1.4c-0.2,0.8-0.6,1.4-1.2,1.9c-0.6,0.5-1.4,0.7-2.3,0.7
		c-0.7,0-1.4-0.2-1.9-0.5c-0.6-0.3-1-0.8-1.3-1.4s-0.5-1.3-0.5-2.1C211.3,12.4,211.5,11.7,211.8,11.1z"/>
	<path class="st1" d="M221.6,6.6V17h-1.3V6.6H221.6z"/>
	<path class="st1" d="M230.6,9.3V17h-1.3v-1.1c-0.2,0.4-0.6,0.7-1,0.9c-0.4,0.2-0.9,0.3-1.4,0.3c-0.6,0-1.1-0.1-1.6-0.4
		c-0.5-0.2-0.9-0.6-1.1-1.1c-0.3-0.5-0.4-1.1-0.4-1.8V9.3h1.3v4.3c0,0.8,0.2,1.3,0.6,1.7c0.4,0.4,0.9,0.6,1.6,0.6
		c0.7,0,1.2-0.2,1.6-0.6s0.6-1,0.6-1.8V9.3H230.6z"/>
	<path class="st1" d="M233.8,16.8c-0.5-0.2-0.8-0.5-1.1-0.8c-0.3-0.4-0.4-0.8-0.4-1.2h1.3c0,0.4,0.2,0.7,0.5,0.9
		c0.3,0.2,0.7,0.4,1.3,0.4c0.5,0,0.9-0.1,1.1-0.3c0.3-0.2,0.4-0.5,0.4-0.8c0-0.3-0.1-0.6-0.4-0.7s-0.8-0.3-1.4-0.5
		c-0.6-0.1-1-0.3-1.4-0.5c-0.4-0.2-0.7-0.4-0.9-0.7c-0.3-0.3-0.4-0.7-0.4-1.2c0-0.4,0.1-0.8,0.3-1.1c0.2-0.3,0.6-0.6,1-0.8
		s0.9-0.3,1.5-0.3c0.8,0,1.5,0.2,2.1,0.6c0.5,0.4,0.8,1,0.8,1.8h-1.3c0-0.4-0.2-0.7-0.5-1c-0.3-0.2-0.7-0.4-1.2-0.4
		c-0.5,0-0.8,0.1-1.1,0.3c-0.3,0.2-0.4,0.5-0.4,0.8c0,0.3,0.1,0.5,0.2,0.6c0.2,0.2,0.4,0.3,0.6,0.4c0.2,0.1,0.6,0.2,1,0.3
		c0.6,0.1,1,0.3,1.3,0.4s0.6,0.4,0.9,0.7c0.2,0.3,0.4,0.7,0.4,1.1c0,0.4-0.1,0.8-0.4,1.1c-0.2,0.3-0.6,0.6-1,0.8
		c-0.4,0.2-0.9,0.3-1.5,0.3C234.8,17.1,234.3,17,233.8,16.8z"/>
</g>
<g class="st0">
	<path class="st1" d="M40.5,13.6c0.7-0.6,1.2-1.2,1.7-1.9c0.5-0.7,0.7-1.3,0.7-2c0-0.6-0.1-1.1-0.4-1.4C42.2,8,41.7,7.8,41,7.8
		c-0.6,0-1.1,0.2-1.5,0.6C39.2,8.8,39,9.3,39,10h-1.2c0-1,0.4-1.9,1-2.4C39.3,7,40.1,6.7,41,6.7c1,0,1.7,0.3,2.3,0.8
		c0.6,0.5,0.8,1.3,0.8,2.2c0,0.8-0.2,1.5-0.7,2.3s-1,1.4-1.6,1.9c-0.6,0.6-1.3,1.2-2.3,1.9h4.8v1.1h-6.7V16
		C38.9,15,39.8,14.2,40.5,13.6z"/>
	<path class="st1" d="M52.4,8h-4.9v3.2c0.2-0.3,0.5-0.5,1-0.7s0.9-0.3,1.4-0.3c0.8,0,1.4,0.2,1.9,0.5c0.5,0.3,0.8,0.7,1,1.2
		s0.3,1,0.3,1.6c0,0.7-0.1,1.3-0.4,1.8c-0.3,0.5-0.6,1-1.2,1.3C51,16.9,50.3,17,49.6,17c-1,0-1.8-0.3-2.4-0.8c-0.6-0.5-1-1.2-1.1-2
		h1.2c0.1,0.5,0.4,0.9,0.8,1.2S49,16,49.6,16c0.7,0,1.3-0.2,1.7-0.7c0.4-0.4,0.6-1,0.6-1.8c0-0.7-0.2-1.3-0.6-1.7
		c-0.4-0.4-0.9-0.6-1.7-0.6c-0.5,0-0.9,0.1-1.3,0.4c-0.4,0.2-0.6,0.6-0.8,1h-1.2V6.9h6.1V8z"/>
	<path class="st1" d="M55.5,8.1c0.5-0.9,1.4-1.4,2.7-1.4c1.3,0,2.2,0.5,2.7,1.4c0.5,0.9,0.8,2.2,0.8,3.8c0,1.6-0.3,2.9-0.8,3.8
		c-0.5,0.9-1.4,1.4-2.7,1.4c-1.3,0-2.2-0.5-2.7-1.4c-0.5-0.9-0.8-2.2-0.8-3.8C54.7,10.2,55,9,55.5,8.1z M60.3,9.8
		c-0.1-0.6-0.3-1-0.7-1.4c-0.3-0.3-0.8-0.5-1.4-0.5c-0.6,0-1.1,0.2-1.4,0.5c-0.3,0.3-0.6,0.8-0.7,1.4C56,10.3,56,11,56,11.8
		c0,0.8,0.1,1.5,0.2,2.1c0.1,0.6,0.3,1,0.7,1.4c0.3,0.3,0.8,0.5,1.4,0.5c0.6,0,1.1-0.2,1.4-0.5c0.3-0.3,0.6-0.8,0.7-1.4
		c0.1-0.6,0.2-1.3,0.2-2.1C60.5,11,60.4,10.3,60.3,9.8z"/>
	<path class="st1" d="M64.3,8.1c0.5-0.9,1.4-1.4,2.7-1.4c1.3,0,2.2,0.5,2.7,1.4c0.5,0.9,0.8,2.2,0.8,3.8c0,1.6-0.3,2.9-0.8,3.8
		C69.2,16.5,68.3,17,67,17c-1.3,0-2.2-0.5-2.7-1.4c-0.5-0.9-0.8-2.2-0.8-3.8C63.5,10.2,63.8,9,64.3,8.1z M69.1,9.8
		c-0.1-0.6-0.3-1-0.7-1.4c-0.3-0.3-0.8-0.5-1.4-0.5c-0.6,0-1.1,0.2-1.4,0.5c-0.3,0.3-0.6,0.8-0.7,1.4c-0.1,0.6-0.2,1.3-0.2,2.1
		c0,0.8,0.1,1.5,0.2,2.1c0.1,0.6,0.3,1,0.7,1.4c0.3,0.3,0.8,0.5,1.4,0.5c0.6,0,1.1-0.2,1.4-0.5c0.3-0.3,0.6-0.8,0.7-1.4
		c0.1-0.6,0.2-1.3,0.2-2.1C69.3,11,69.2,10.3,69.1,9.8z"/>
	<path class="st1" d="M83.3,15.5c0.5-0.3,0.9-0.7,1.2-1.3H86c-0.4,0.9-0.9,1.7-1.7,2.2c-0.8,0.5-1.7,0.8-2.8,0.8
		c-1.1,0-2.1-0.3-2.9-0.9c-0.8-0.6-1.4-1.4-1.7-2.4h-1.4v-0.9h1.2c0-0.2,0-0.5,0-0.7c0-0.2,0-0.5,0-0.7h-1.2v-0.9h1.3
		c0.2-0.7,0.5-1.3,1-1.8c0.5-0.5,1-0.9,1.6-1.2c0.6-0.3,1.3-0.4,2.1-0.4c1.1,0,2,0.3,2.8,0.8c0.8,0.5,1.4,1.2,1.7,2.2h-1.5
		c-0.3-0.6-0.7-1-1.2-1.3c-0.5-0.3-1.1-0.5-1.8-0.5c-0.8,0-1.5,0.2-2.1,0.6c-0.6,0.4-1,1-1.3,1.7h3.3v0.9H78c0,0.2,0,0.5,0,0.7
		c0,0.3,0,0.5,0.1,0.7h3.5v0.9h-3.3c0.3,0.7,0.7,1.2,1.3,1.6c0.6,0.4,1.3,0.6,2,0.6C82.2,15.9,82.8,15.8,83.3,15.5z"/>
</g>
<g id="coffee" transform="translate(153 133)">
	<path id="Tracé_1159" class="st2" d="M-8-125h1c2.2,0,4,1.8,4,4s-1.8,4-4,4h-1"/>
	<path id="Tracé_1160" class="st2" d="M-24-125h16v9c0,2.2-1.8,4-4,4h-8c-2.2,0-4-1.8-4-4V-125z"/>
	<line id="Ligne_84" class="st2" x1="-20" y1="-132" x2="-20" y2="-129"/>
	<line id="Ligne_85" class="st2" x1="-16" y1="-132" x2="-16" y2="-129"/>
	<line id="Ligne_86" class="st2" x1="-12" y1="-132" x2="-12" y2="-129"/>
</g>
<g id="map-pin" transform="translate(308 133)">
	<path id="Tracé_1250" class="st2" d="M-5-123c0,7-9,13-9,13s-9-6-9-13c0-5,4-9,9-9S-5-128-5-123z"/>
	<circle id="Ellipse_338" class="st2" cx="-14" cy="-123" r="3"/>
</g>
<g class="st0">
	<path class="st1" d="M323.9,8.8c0.8,0.4,1.4,1,1.8,1.7s0.6,1.6,0.6,2.6c0,1-0.2,1.9-0.6,2.6c-0.4,0.7-1,1.3-1.8,1.7
		c-0.8,0.4-1.7,0.6-2.8,0.6h-3V8.2h3C322.2,8.2,323.1,8.4,323.9,8.8z M324,15.9c0.7-0.7,1-1.6,1-2.8c0-1.2-0.3-2.2-1-2.8
		c-0.7-0.7-1.6-1-2.9-1h-1.8V17h1.8C322.4,17,323.3,16.6,324,15.9z"/>
	<path class="st1" d="M334.9,14.6h-6.1c0,0.8,0.3,1.3,0.8,1.8c0.5,0.4,1,0.6,1.7,0.6c0.6,0,1-0.1,1.4-0.4s0.6-0.6,0.8-1h1.4
		c-0.2,0.7-0.6,1.3-1.2,1.8c-0.6,0.5-1.4,0.7-2.3,0.7c-0.7,0-1.4-0.2-2-0.5c-0.6-0.3-1-0.8-1.4-1.4c-0.3-0.6-0.5-1.3-0.5-2.1
		c0-0.8,0.2-1.5,0.5-2.1c0.3-0.6,0.8-1.1,1.3-1.4c0.6-0.3,1.2-0.5,2-0.5c0.7,0,1.4,0.2,1.9,0.5c0.6,0.3,1,0.8,1.3,1.3
		c0.3,0.6,0.5,1.2,0.5,1.9C335,14.1,335,14.4,334.9,14.6z M333.3,12.4c-0.2-0.3-0.5-0.6-0.9-0.8c-0.4-0.2-0.8-0.3-1.2-0.3
		c-0.6,0-1.2,0.2-1.6,0.6c-0.5,0.4-0.7,1-0.8,1.7h4.8C333.7,13.1,333.6,12.7,333.3,12.4z M332.6,8.2l-3,1.6v-1l3-1.7V8.2z"/>
	<path class="st1" d="M337.8,17.8c-0.5-0.2-0.8-0.5-1.1-0.8c-0.3-0.4-0.4-0.8-0.4-1.2h1.3c0,0.4,0.2,0.7,0.5,0.9
		c0.3,0.2,0.7,0.4,1.3,0.4c0.5,0,0.9-0.1,1.1-0.3c0.3-0.2,0.4-0.5,0.4-0.8c0-0.3-0.1-0.6-0.4-0.7s-0.8-0.3-1.4-0.5
		c-0.6-0.1-1-0.3-1.4-0.5c-0.4-0.2-0.7-0.4-0.9-0.7c-0.3-0.3-0.4-0.7-0.4-1.2c0-0.4,0.1-0.8,0.4-1.1c0.2-0.3,0.6-0.6,1-0.8
		s0.9-0.3,1.5-0.3c0.8,0,1.5,0.2,2.1,0.6c0.5,0.4,0.8,1,0.8,1.8h-1.3c0-0.4-0.2-0.7-0.5-1c-0.3-0.2-0.7-0.4-1.2-0.4
		c-0.5,0-0.8,0.1-1.1,0.3c-0.3,0.2-0.4,0.5-0.4,0.8c0,0.3,0.1,0.5,0.2,0.6c0.2,0.2,0.4,0.3,0.6,0.4c0.2,0.1,0.6,0.2,1,0.3
		c0.5,0.1,1,0.3,1.3,0.4s0.6,0.4,0.9,0.7c0.2,0.3,0.4,0.7,0.4,1.1c0,0.4-0.1,0.8-0.3,1.1c-0.2,0.3-0.6,0.6-1,0.8
		c-0.4,0.2-0.9,0.3-1.5,0.3C338.8,18.1,338.3,18,337.8,17.8z"/>
	<path class="st1" d="M350.9,14.6h-6.1c0,0.8,0.3,1.3,0.8,1.8c0.5,0.4,1,0.6,1.7,0.6c0.6,0,1-0.1,1.4-0.4c0.4-0.3,0.6-0.6,0.8-1h1.4
		c-0.2,0.7-0.6,1.3-1.2,1.8c-0.6,0.5-1.4,0.7-2.3,0.7c-0.7,0-1.4-0.2-2-0.5c-0.6-0.3-1-0.8-1.4-1.4c-0.3-0.6-0.5-1.3-0.5-2.1
		c0-0.8,0.2-1.5,0.5-2.1c0.3-0.6,0.8-1.1,1.3-1.4c0.6-0.3,1.2-0.5,2-0.5c0.7,0,1.4,0.2,1.9,0.5s1,0.8,1.3,1.3
		c0.3,0.6,0.5,1.2,0.5,1.9C351,14.1,350.9,14.4,350.9,14.6z M349.3,12.4c-0.2-0.3-0.5-0.6-0.9-0.8c-0.4-0.2-0.8-0.3-1.2-0.3
		c-0.6,0-1.2,0.2-1.6,0.6c-0.5,0.4-0.7,1-0.8,1.7h4.8C349.6,13.1,349.5,12.7,349.3,12.4z"/>
	<path class="st1" d="M354.9,10.6c0.4-0.2,0.9-0.4,1.5-0.4v1.3h-0.3c-1.4,0-2.1,0.8-2.1,2.3V18h-1.3v-7.7h1.3v1.2
		C354.1,11.1,354.5,10.8,354.9,10.6z"/>
	<path class="st1" d="M359.4,11.4v4.5c0,0.4,0.1,0.6,0.2,0.8c0.2,0.2,0.4,0.2,0.8,0.2h0.9V18h-1.1c-0.7,0-1.2-0.2-1.6-0.5
		c-0.4-0.3-0.5-0.9-0.5-1.6v-4.5h-1v-1h1V8.4h1.3v1.9h2v1H359.4z"/>
</g>
<g id="credit-card" transform="translate(26 132)">
	<path id="Rectangle_1631" class="st2" d="M-23-129h18c1.1,0,2,0.9,2,2v12c0,1.1-0.9,2-2,2h-18c-1.1,0-2-0.9-2-2v-12
		C-25-128.1-24.1-129-23-129z"/>
	<line id="Ligne_95" class="st2" x1="-25" y1="-123" x2="-3" y2="-123"/>
</g>
</svg>
