<?xml version="1.0" encoding="utf-8"?>
<!-- Generator: Adobe Illustrator 25.0.1, SVG Export Plug-In . SVG Version: 6.00 Build 0)  -->
<svg version="1.1" id="Calque_1" xmlns="http://www.w3.org/2000/svg" xmlns:xlink="http://www.w3.org/1999/xlink" x="0px" y="0px"
	 viewBox="0 0 2834.6 2834.6" style="enable-background:new 0 0 2834.6 2834.6;" xml:space="preserve">
<style type="text/css">
	.st0{fill:#161616;}
	.st1{fill:#E2B9A1;}
</style>
<path class="st0" d="M2785.4,1046.6c-2.3-8.6-4.7-17.2-7.2-25.7c-1.6-5.4-3.2-10.9-4.9-16.3C2610.7,471.3,2141.4,70.4,1571.8,8.4
	c-0.6-0.1-1.1-0.1-1.7-0.2c-8.1-0.9-16.2-1.7-24.3-2.4c-1.1-0.1-2.1-0.2-3.2-0.3c-7.6-0.7-15.2-1.3-22.8-1.8
	c-7.7-0.6-15.5-1.1-23.2-1.5c-4.2-0.2-8.5-0.5-12.7-0.7c-22.1-1-44.4-1.5-66.8-1.5c-15.2,0-30.3,0.2-45.4,0.7
	C611.2,24.9,0,651.1,0,1417.3s611.2,1392.4,1371.7,1416.6c15.1,0.5,30.2,0.7,45.4,0.7h0.2c5.4,0,10.8,0,16.2-0.1
	c7.3-0.1,14.5-0.2,21.7-0.4c2.5-0.1,5-0.1,7.5-0.2c2.8-0.1,5.6-0.2,8.3-0.3c0.3,0,0.7,0,1,0c2.9-0.1,5.9-0.2,8.8-0.4
	c8.3-0.4,16.6-0.8,24.9-1.3c2.3-0.1,4.6-0.3,6.9-0.4c0.6,0,1.1-0.1,1.7-0.1c2.4-0.2,4.9-0.3,7.3-0.5c2.7-0.2,5.3-0.4,8-0.6
	c2.7-0.2,5.3-0.4,7.9-0.7c2.8-0.2,5.5-0.5,8.3-0.7c5.2-0.5,10.3-1,15.5-1.5c5.3-0.5,10.5-1.1,15.8-1.7
	c283.7-32,542.3-148.2,750.3-322.8l0.4,0.4c63.4-53.2,122-111.9,175.1-175.2l-0.3-0.3c127.8-152.1,224.2-331.4,279.3-527.7
	c1.9-6.6,3.7-13.3,5.4-19.9c30.7-115.8,47-237.4,47-362.7C2834.6,1289.1,2817.5,1164.8,2785.4,1046.6z M2416,2024.9
	c-45.7,74.9-99.5,144.3-160.4,206.8c-4.5,3.5-8.9,7.1-12.9,11.3c-4.2,4.2-7.8,8.4-11.3,12.9c-1.6,1.5-3.1,3.1-4.7,4.5
	c-3.6-72-24.9-143.5-61.5-204.5c-32.4-53.8-77.5-101-131.9-132.6c-68.8-40-149.9-53.7-228.7-51.7c-26,0.5-51.7,2.7-77.5,5.8
	l-29.7,87.9l-1.3,3.5c-12.2,32-30,74-61.9,113.5c-38,47.1-87,80.2-145.5,98.4l-2.2,0.7l-2.4,0.7c-23.1,6.5-47.7,9.8-73.3,9.8
	c-48.4,0-98.4-11.8-140.8-33.5c-32.9-16.7-61.1-39.1-83.5-66.2c-34.9-42.2-54.2-95.3-54.2-149.4v-10.2c0,0,2.4-24.4,3.1-32.4
	c-35.7,16.2-68.6,30.6-97,41.8l-35.8,14.4l-38.6,0.4H962c-89.3,0-171-52.4-208.3-133.5l-53.5-114.8l-0.4-0.7
	c-1.6-3.5-3.1-7.1-4.5-10.6c-9.3-3.8-18.4-7.6-27.3-12.2c-74-36.9-106.8-91.7-121.2-131.2c-3.3-9.1-6.2-18.4-8.2-27.8
	c-15.8,3.1-31.5,6.5-47.1,10.4c-77.7,18.9-152.8,46.4-226.8,76.2c-10.7-63.7-16.4-129-16.4-195.6c0-28,0.9-55.8,2.9-83.3
	c48.9,5.1,98.4,4.5,147.5-1.6c69.1-8.7,136.4-24.9,202.7-46.9c0.2,0,0.4-0.2,0.7-0.2c6.5-11.3,13.5-23.6,21.3-37.1l0.4-0.7
	c28.7-50.9,75.5-88,129.5-105.7c-0.7-9.5-0.9-19.1-0.5-28.7c1.8-44.2,15.3-89.9,38.9-131.5c19.5-34.4,44.9-64.8,73.7-87.7l4.2-3.3
	l4.4-3.1c49.1-35.5,108.6-54.2,171.9-54.2c37.8,0,77.7,6.7,118.1,20c6.7,2.2,12.9,4.4,19.1,6.7l1.1,0.4l308.7,120.8l216.5-101.5
	c12.4-35.5,18.7-72.9,18.4-110.8c-0.9-83.5-32-166.3-82.4-232.3c-15.3-20-31.1-39.1-49.3-56.6c-15.6-15.1-32.7-28.7-49.8-42
	c-32.6-25.5-66.2-50.4-92.8-82.4c-6.2-8.7-11.6-17.8-16.2-27.5c-3.6-9.5-6.4-19.3-8.2-29.3c-0.5-7.1-0.5-14.2-0.2-21.3
	c0.9-4.5,2.2-8.9,3.6-13.5c1.5-2.9,3.1-5.6,4.9-8.4c1.5-1.6,3.1-3.3,4.5-4.7c0.9-0.7,1.6-1.6,2.4-2.5
	c142.1,3.3,278.1,31.8,403.5,81.7c2.4,0.9,4.7,1.8,7.1,2.9c-3.3-1.1-6.7,1.5-6.4,5.1c2,19.5,5.5,38.7,10.6,58
	c12.9,49.7,34.9,97.5,61.3,141.3c26.7,44.6,58.9,85.5,91.5,125.7c15.1,18.6,30.4,36.9,45.5,55.5c7.6,9.3,15.1,18.6,22.6,27.8
	c4,5.1,8.2,10.2,12.2,15.3c0.2,0.3,0.4,0.5,0.6,0.8l-0.5-0.5c1.5,2,4.2,5.3,5.1,6.5l90.4,98.8l83.3,123.7c0,0.2,0.2,0.2,0.2,0.4
	l2.7,6.4c35.8,82.2,37.5,168.5,4.9,249.2c-68.4,169.2-260.3,248.5-414.4,312.3c-10,4.2-21.3,8.7-32.4,13.5c-1.3,0.5-2.2,1.6-2.7,2.9
	l-40.4,119.9c-1.1,3.3,1.6,6.7,5.1,6.2c57.8-6.5,115.7-12.6,174.1-8.6c9.3,0.5,18.4,1.5,27.5,2.5c44.2,6.7,87.5,18.7,128.8,35.5
	c24.4,10.7,48.2,22.9,70.9,36.9c12.6,7.6,24.9,15.8,36.9,24.4c3.5,2.4,6.7,4.9,10,7.5l-0.2-0.2c0.7,0.5,2.2,1.6,4.7,3.5
	c0,0,0.2,0,0.2,0.2c0.2,0,0.2,0.2,0.4,0.2c0.3,0.3,0.5,0.4,0.8,0.6l0,0c0.1,0,0.2,0.1,0.3,0.2c-0.1,0-0.1-0.1-0.2-0.1
	c0,0,0,0.1,0,0.1c3.5,2.7,6.7,5.5,10.2,8.2c22.7,18.9,44,39.5,63.7,61.5c4.5,5.1,9.1,10.4,13.6,15.8c2.2,2.7,4.4,5.3,6.5,8
	c0.5,0.5,1.5,2,2.7,3.5c0,0.2,0.2,0.2,0.2,0.4c0.2,0.2,0.4,0.4,0.5,0.5c0.7,1,1.5,2.1,2.3,3c0.7,0.9,1.3,1.7,1.6,2.1
	c2,2.7,4,5.6,6.2,8.4c4.2,6,8.4,12.2,12.4,18.2c16.9,26,31.8,53.3,44.2,81.7c0.8,2,2.6,3,4.5,3c1.5,0,3-0.7,3.9-2.1
	C2419.3,2019.4,2417.7,2022.2,2416,2024.9z"/>
<path class="st1" d="M898.8,1657.6c-1.5-0.7-3.1-1.5-4.5-1.8C894.8,1656.2,897,1656.9,898.8,1657.6z"/>
<path class="st1" d="M2084.6,1080c-50.4-96.8-180.1-73.3-258.9-27.7l-326.2,153l-301.6-118.1l-88.4-34.6c-3.6-1.5-7.3-2.7-10.7-3.8
	c-44-14.6-79.3-12.7-104.6,5.5c-21.5,17.3-46.9,62-30.6,88.8c1.5,2.4,3.3,4.7,5.5,6.7l262.7,180.5l-150.4,71.1l-252.3-64
	c-10.4-2.5-21.1,2.2-26.4,11.5c-80.4,143.3-92.8,135.2,8.5,171.5c31.3,11.3,73.5,26.7,127.7,52.2c-17.5,10-65.5,19.6-51.7,49.5
	l53.5,114.6c3.6,8.2,12.4,13.8,21.3,13.8c40.9-16.4,95.7-41.3,153.7-68.4c71.7-33.7,148.3-70.6,209.4-99.1
	c18.4-8.5,35.3-16.4,50.2-22.9c-1.8,18.7-4.2,42.8-6.7,69.9c-8,83.3-18.7,195.9-26,271.8c-1.5,15.1-2.7,28.7-3.8,40.4
	c0.2,34.4,62,49.1,89.1,41.3c35.7-11.1,53.7-34.9,69.9-73.3c1.8-4.5,3.8-9.3,5.6-14.2l63.1-187L1662,1426
	c72.4-46.6,275.4-102.6,375.8-191C2086.6,1191.7,2111.1,1141.2,2084.6,1080z"/>
</svg>
