<?xml version="1.0" encoding="utf-8"?>
<!-- Generator: Adobe Illustrator 25.0.1, SVG Export Plug-In . SVG Version: 6.00 Build 0)  -->
<svg version="1.1" id="Capa_1" xmlns="http://www.w3.org/2000/svg" xmlns:xlink="http://www.w3.org/1999/xlink" x="0px" y="0px"
	 viewBox="0 0 512 512" style="enable-background:new 0 0 512 512;" xml:space="preserve">
<style type="text/css">
	.st0{fill:#1E1E1E;}
</style>
<g id="XMLID_1376_">
	<g id="XMLID_234_">
		<path id="XMLID_598_" class="st0" d="M491.1,245c-2.3-22.7-19.7-40.5-42.3-43.4c-4.6-0.6-9.1-0.5-13.6,0.1
			c-8.7-8.7-19.7-14.5-31.7-16.9c1.2-8,1.9-16.1,1.9-24.3c0-34.6-10.9-67.6-31.4-95.4C353.8,37.9,326.2,18,294.2,7.7
			c-5.3-1.7-10.9,1.2-12.6,6.5c-1.7,5.3,1.2,10.9,6.5,12.6c31.6,10.2,57.5,30.6,74.7,57c-7.7,3.5-17.1,2.1-23.4-4.2
			c-7.7-7.7-18-12-28.9-12c-10.9,0-21.2,4.3-28.9,12c-8.1,8.1-21.4,8.1-29.5,0c-7.7-7.7-18-12-28.9-12c-10.9,0-21.2,4.3-28.9,12
			c-3.9,3.9-9.2,6.1-14.8,6.1s-10.8-2.2-14.8-6.1c-6.8-6.8-15.7-11-25.2-11.8c17.1-19.4,39.7-34.2,65.9-41.9
			c5.3-1.6,8.3-7.1,6.7-12.4c-1.6-5.3-7.1-8.3-12.4-6.7c-32.2,9.5-60.3,28.7-81.1,55.3c-21.3,27.2-33,59.8-33.9,94.2
			c-0.9,34.3,8.9,67.4,28,95.1c-13.5,1.7-26,7.8-35.7,17.5c-4.5-0.7-9-0.7-13.6-0.1c-22.6,2.9-40,20.8-42.3,43.4
			c-0.9,9.1,0.7,18.2,4.6,26.3c1.7,3.4,5.2,5.6,9,5.6h136.4v20.1c-15.6,1-28,14.1-28,29.9c0,13,8.4,24.2,20,28.3v41.9
			c0,26.4,21.5,47.8,47.8,47.8h68.3c26.4,0,47.8-21.5,47.8-47.8v-41.9c11.6-4.1,20-15.2,20-28.3c0-15.9-12.4-28.9-28-29.9v-28.6
			c6.8-22.3,19.1-42.3,35.7-57.9c0.2-0.2,0.4-0.4,0.6-0.6h122.2c3.8,0,7.3-2.2,9-5.6C490.4,263.2,492,254.1,491.1,245z M301.6,324
			h-82c0.6-3.9,0.6-8,0.2-12c-2.3-22.5-19.4-40.2-41.7-43.4c1.7-1.3,3.3-2.6,4.8-4.2c8.8-8.8,23.1-8.8,31.9,0
			c16.6,16.6,43.6,16.6,60.2,0c4.3-4.3,9.9-6.6,15.9-6.6c6,0,11.7,2.3,15.9,6.6c6.2,6.2,13.7,10,21.7,11.6
			C316.9,290.2,307.7,306.4,301.6,324z M352.9,250.4c-8.8,8.7-23,8.7-31.8-0.1c-8-8-18.7-12.5-30.1-12.5c-11.4,0-22.1,4.4-30.1,12.5
			c-8.8,8.8-23.1,8.8-31.9,0c-16.6-16.6-43.6-16.6-60.2,0c-4.3,4.3-9.9,6.6-15.9,6.6c-5.9,0-11.5-2.3-15.8-6.5
			c-17.6-21.1-28.6-46.5-31.7-73.6c7.9-5.6,18.9-4.9,26,2.2c7.8,7.8,18.1,11.8,28.4,11.8s20.6-3.9,28.4-11.8
			c7.9-7.9,20.7-7.9,28.6,0c15.7,15.7,41.2,15.7,56.9,0c7.9-7.9,20.7-7.9,28.6,0c15.7,15.7,41.2,15.7,56.9,0
			c6.8-6.8,17.4-7.7,25.2-2.7C381.5,203.8,370.6,229.3,352.9,250.4L352.9,250.4z M150.5,93.6c7.7,7.7,18,12,28.9,12
			c10.9,0,21.2-4.3,28.9-12c3.9-3.9,9.2-6.1,14.8-6.1c5.6,0,10.8,2.2,14.8,6.1c15.9,15.9,41.9,15.9,57.8,0c3.9-3.9,9.2-6.1,14.8-6.1
			c5.6,0,10.8,2.2,14.8,6.1c12.8,12.8,31.9,15.3,47.2,7.6c7.6,16.5,12.1,34.7,12.9,53.6c-13.8-4.2-29.3-0.8-40.2,10
			c-7.9,7.9-20.7,7.9-28.6,0c-15.7-15.7-41.2-15.7-56.9,0c-7.9,7.9-20.7,7.9-28.6,0c-15.7-15.7-41.2-15.7-56.9,0
			c-7.9,7.9-20.7,7.9-28.6,0c-11.1-11.1-27-14.3-41-9.8c0.8-22.3,6.9-43.5,17.1-62.2C129.8,85.5,142.5,85.7,150.5,93.6L150.5,93.6z
			 M40.8,314c1.3-13.4,11.6-23.9,25-25.6c4-0.5,7.9-0.2,11.8,0.9c3.8,1.1,8-0.2,10.5-3.3c8-9.7,19.7-15.3,32.3-15.3
			s24.3,5.6,32.3,15.3c2.5,3.1,6.7,4.4,10.5,3.3c3.8-1.1,7.8-1.4,11.8-0.9c13.4,1.7,23.6,12.3,25,25.6c0.3,3.4,0.1,6.7-0.7,10H41.5
			C40.7,320.8,40.5,317.4,40.8,314z M298.9,344v20h-108v-20H298.9z M306.9,464.2c0,15.3-12.5,27.8-27.8,27.8h-68.3
			c-15.3,0-27.8-12.5-27.8-27.8V424h124L306.9,464.2L306.9,464.2z M326.9,394c0,5.5-4.5,10-10,10h-144c-5.5,0-10-4.5-10-10
			c0-5.5,4.5-10,10-10h144C322.4,384,326.9,388.5,326.9,394z M470.5,257h-97.4c11.9-15.8,20.7-33.7,26.1-52.6
			c9.6,1.8,18.4,6.9,24.7,14.6c2.5,3.1,6.7,4.4,10.5,3.3c3.8-1.1,7.8-1.4,11.8-0.9c13.4,1.7,23.6,12.3,25,25.6
			C471.5,250.4,471.3,253.7,470.5,257z"/>
		<path id="XMLID_762_" class="st0" d="M246.7,20c2.6,0,5.2-1.1,7.1-2.9s2.9-4.4,2.9-7.1s-1.1-5.2-2.9-7.1c-1.9-1.9-4.4-2.9-7.1-2.9
			s-5.2,1.1-7.1,2.9c-1.9,1.9-2.9,4.4-2.9,7.1s1.1,5.2,2.9,7.1C241.5,18.9,244,20,246.7,20L246.7,20z"/>
	</g>
</g>
</svg>
