<?xml version="1.0" encoding="utf-8"?>
<!-- Generator: Adobe Illustrator 25.0.1, SVG Export Plug-In . SVG Version: 6.00 Build 0)  -->
<svg version="1.1" id="Capa_1" xmlns="http://www.w3.org/2000/svg" xmlns:xlink="http://www.w3.org/1999/xlink" x="0px" y="0px"
	 viewBox="0 0 512 512" style="enable-background:new 0 0 512 512;" xml:space="preserve">
<style type="text/css">
	.st0{fill:#282828;}
	.st1{fill:#1E1E1E;}
</style>
<path class="st0" d="M418.5,499.6l53.7-53.7l-84.7-256L496.8,85c20-19.2,20.3-51,0.7-70.6l0,0C478-5.1,446.1-4.8,427,15.2
	L322.1,124.5l-256-84.7L12.4,93.5l213.4,131.4l-108,112.5L48.6,326L0,374.6l101.8,35.6L137.4,512l48.6-48.6l-11.4-69.2l112.5-108
	L418.5,499.6z"/>
<path class="st1" d="M418.5,499.6l53.7-53.7l-84.7-256L496.8,85c20-19.2,20.3-51,0.7-70.6l0,0L101.8,410.2L137.4,512l48.6-48.6
	l-11.4-69.2l112.5-108L418.5,499.6z"/>
</svg>
