<?xml version="1.0" encoding="utf-8"?>
<!-- Generator: Adobe Illustrator 25.0.1, SVG Export Plug-In . SVG Version: 6.00 Build 0)  -->
<svg version="1.1" id="Capa_1" xmlns="http://www.w3.org/2000/svg" xmlns:xlink="http://www.w3.org/1999/xlink" x="0px" y="0px"
	 viewBox="0 0 512 512" style="enable-background:new 0 0 512 512;" xml:space="preserve">
<style type="text/css">
	.st0{fill:#4CAF50;}
	.st1{fill:#E2B9A1;}
</style>
<path class="st0" d="M263.4,3.1c-4.2-4.2-10.9-4.2-15.1,0l0,0l-192,192c-4.1,4.2-4,11,0.3,15.1c4.1,4,10.7,4,14.8,0L245.2,36.4
	v464.9c0,5.9,4.8,10.7,10.7,10.7s10.7-4.8,10.7-10.7V36.4l173.8,173.8c4.1,4.2,10.8,4.4,15.1,0.3c4.2-4.1,4.4-10.8,0.3-15.1
	c-0.1-0.1-0.2-0.2-0.3-0.3L263.4,3.1z"/>
<path class="st1" d="M447.9,213.3c-2.8,0-5.5-1.1-7.6-3.1L255.9,25.7L71.4,210.2c-4.2,4.1-11,4-15.1-0.3c-4-4.1-4-10.7,0-14.8
	l192-192c4.2-4.2,10.9-4.2,15.1,0l192,192c4.2,4.2,4.1,10.9,0,15.1C453.4,212.2,450.7,213.3,447.9,213.3z"/>
<path class="st1" d="M255.9,512c-5.9,0-10.7-4.8-10.7-10.7V10.7C245.2,4.8,250,0,255.9,0s10.7,4.8,10.7,10.7v490.7
	C266.5,507.2,261.8,512,255.9,512z"/>
</svg>
